<svg xmlns="http://www.w3.org/2000/svg" xmlns:xlink="http://www.w3.org/1999/xlink" width="500" zoomAndPan="magnify" viewBox="0 0 375 374.999991" height="500" preserveAspectRatio="xMidYMid meet" version="1.2"><defs><clipPath id="571317223f"><path d="M 138.621094 187.5 L 345 187.5 L 345 276 L 138.621094 276 Z M 138.621094 187.5 "/></clipPath></defs><g id="b0d0087a36"><g clip-rule="nonzero" clip-path="url(#571317223f)"><path style=" stroke:none;fill-rule:nonzero;fill:#f5f5f5;fill-opacity:1;" d="M 344.890625 260.503906 C 344.890625 267.476562 339.242188 273.128906 332.269531 273.128906 C 328.679688 273.128906 325.421875 271.601562 323.109375 269.207031 C 319.191406 272.179688 314.324219 273.953125 309.042969 273.953125 C 303.183594 273.953125 297.820312 271.765625 293.695312 268.175781 C 290.476562 271.269531 286.105469 273.128906 281.320312 273.128906 C 273.730469 273.128906 267.210938 268.382812 264.613281 261.699219 C 261.148438 262.773438 257.433594 263.308594 253.597656 263.308594 C 247.738281 263.308594 242.171875 261.988281 237.21875 259.597656 C 236.4375 268.753906 228.722656 275.933594 219.355469 275.933594 C 215.519531 275.933594 211.972656 274.738281 209.042969 272.675781 C 204.792969 274.777344 199.96875 275.933594 194.894531 275.933594 C 185.445312 275.933594 176.949219 271.890625 171.089844 265.414062 C 167.664062 268.425781 163.167969 270.238281 158.21875 270.238281 C 147.367188 270.28125 138.621094 261.492188 138.621094 250.726562 C 138.621094 239.960938 147.367188 231.171875 158.175781 231.171875 C 160.488281 231.171875 162.714844 231.585938 164.777344 232.328125 C 169.398438 220.238281 181.113281 211.617188 194.851562 211.617188 C 202.980469 211.617188 210.40625 214.628906 216.097656 219.621094 C 218.902344 201.46875 234.621094 187.566406 253.554688 187.566406 C 270.550781 187.566406 284.910156 198.746094 289.734375 214.132812 C 296.089844 216.238281 300.914062 221.808594 301.863281 228.613281 C 304.09375 227.914062 306.484375 227.5 308.960938 227.5 C 320.839844 227.5 330.617188 236.410156 332.019531 247.878906 C 332.0625 247.878906 332.144531 247.878906 332.1875 247.878906 C 339.242188 247.839844 344.890625 253.53125 344.890625 260.503906 Z M 344.890625 260.503906 "/></g><g style="fill:#a6cff4;fill-opacity:0.4;"><g transform="translate(163.51413, 240.878823)"><path style="stroke:none" d="M 150.8125 -75.875 L 150.8125 -71.59375 C 150.8125 -61.394531 148.945312 -51.820312 145.21875 -42.875 C 141.488281 -33.925781 136.332031 -26.035156 129.75 -19.203125 C 123.164062 -12.367188 115.519531 -7.054688 106.8125 -3.265625 C 98.113281 0.523438 88.796875 2.421875 78.859375 2.421875 C 68.910156 2.421875 59.617188 0.554688 50.984375 -3.171875 C 42.347656 -6.898438 34.765625 -12.054688 28.234375 -18.640625 C 21.710938 -25.222656 16.617188 -32.832031 12.953125 -41.46875 C 9.285156 -50.113281 7.453125 -59.40625 7.453125 -69.34375 C 7.453125 -79.289062 9.285156 -88.613281 12.953125 -97.3125 C 16.617188 -106.007812 21.710938 -113.648438 28.234375 -120.234375 C 34.765625 -126.828125 42.347656 -131.988281 50.984375 -135.71875 C 59.617188 -139.445312 68.847656 -141.3125 78.671875 -141.3125 C 91.597656 -141.3125 103.5 -138.234375 114.375 -132.078125 C 125.25 -125.929688 133.789062 -117.757812 140 -107.5625 L 116.890625 -90.78125 C 113.285156 -97.625 108.09375 -103.15625 101.3125 -107.375 C 94.539062 -111.601562 87.054688 -113.71875 78.859375 -113.71875 C 71.148438 -113.71875 64.125 -111.726562 57.78125 -107.75 C 51.445312 -103.769531 46.414062 -98.425781 42.6875 -91.71875 C 38.957031 -85.007812 37.09375 -77.550781 37.09375 -69.34375 C 37.09375 -61.269531 38.957031 -53.875 42.6875 -47.15625 C 46.414062 -40.445312 51.445312 -35.132812 57.78125 -31.21875 C 64.125 -27.3125 71.148438 -25.359375 78.859375 -25.359375 C 87.304688 -25.359375 95.039062 -27.46875 102.0625 -31.6875 C 109.082031 -35.914062 114.148438 -42.066406 117.265625 -50.140625 L 79.609375 -50.140625 L 79.609375 -75.875 Z M 150.8125 -75.875 "/></g></g><g style="fill:#a6cff4;fill-opacity:1;"><g transform="translate(155.275379, 232.640078)"><path style="stroke:none" d="M 150.8125 -75.875 L 150.8125 -71.59375 C 150.8125 -61.394531 148.945312 -51.820312 145.21875 -42.875 C 141.488281 -33.925781 136.332031 -26.035156 129.75 -19.203125 C 123.164062 -12.367188 115.519531 -7.054688 106.8125 -3.265625 C 98.113281 0.523438 88.796875 2.421875 78.859375 2.421875 C 68.910156 2.421875 59.617188 0.554688 50.984375 -3.171875 C 42.347656 -6.898438 34.765625 -12.054688 28.234375 -18.640625 C 21.710938 -25.222656 16.617188 -32.832031 12.953125 -41.46875 C 9.285156 -50.113281 7.453125 -59.40625 7.453125 -69.34375 C 7.453125 -79.289062 9.285156 -88.613281 12.953125 -97.3125 C 16.617188 -106.007812 21.710938 -113.648438 28.234375 -120.234375 C 34.765625 -126.828125 42.347656 -131.988281 50.984375 -135.71875 C 59.617188 -139.445312 68.847656 -141.3125 78.671875 -141.3125 C 91.597656 -141.3125 103.5 -138.234375 114.375 -132.078125 C 125.25 -125.929688 133.789062 -117.757812 140 -107.5625 L 116.890625 -90.78125 C 113.285156 -97.625 108.09375 -103.15625 101.3125 -107.375 C 94.539062 -111.601562 87.054688 -113.71875 78.859375 -113.71875 C 71.148438 -113.71875 64.125 -111.726562 57.78125 -107.75 C 51.445312 -103.769531 46.414062 -98.425781 42.6875 -91.71875 C 38.957031 -85.007812 37.09375 -77.550781 37.09375 -69.34375 C 37.09375 -61.269531 38.957031 -53.875 42.6875 -47.15625 C 46.414062 -40.445312 51.445312 -35.132812 57.78125 -31.21875 C 64.125 -27.3125 71.148438 -25.359375 78.859375 -25.359375 C 87.304688 -25.359375 95.039062 -27.46875 102.0625 -31.6875 C 109.082031 -35.914062 114.148438 -42.066406 117.265625 -50.140625 L 79.609375 -50.140625 L 79.609375 -75.875 Z M 150.8125 -75.875 "/></g></g><g style="fill:#000000;fill-opacity:0.4;"><g transform="translate(73.46787, 241.27798)"><path style="stroke:none" d="M 150.640625 -75.78125 L 150.640625 -71.5 C 150.640625 -61.320312 148.773438 -51.765625 145.046875 -42.828125 C 141.328125 -33.890625 136.175781 -26.003906 129.59375 -19.171875 C 123.019531 -12.347656 115.382812 -7.039062 106.6875 -3.25 C 98 0.53125 88.691406 2.421875 78.765625 2.421875 C 68.835938 2.421875 59.554688 0.5625 50.921875 -3.15625 C 42.296875 -6.882812 34.722656 -12.035156 28.203125 -18.609375 C 21.691406 -25.191406 16.601562 -32.796875 12.9375 -41.421875 C 9.28125 -50.054688 7.453125 -59.335938 7.453125 -69.265625 C 7.453125 -79.191406 9.28125 -88.5 12.9375 -97.1875 C 16.601562 -105.882812 21.691406 -113.519531 28.203125 -120.09375 C 34.722656 -126.675781 42.296875 -131.828125 50.921875 -135.546875 C 59.554688 -139.273438 68.773438 -141.140625 78.578125 -141.140625 C 91.484375 -141.140625 103.367188 -138.066406 114.234375 -131.921875 C 125.097656 -125.773438 133.632812 -117.613281 139.84375 -107.4375 L 116.75 -90.6875 C 113.144531 -97.507812 107.957031 -103.03125 101.1875 -107.25 C 94.425781 -111.46875 86.953125 -113.578125 78.765625 -113.578125 C 71.066406 -113.578125 64.050781 -111.59375 57.71875 -107.625 C 51.394531 -103.65625 46.367188 -98.316406 42.640625 -91.609375 C 38.910156 -84.910156 37.046875 -77.460938 37.046875 -69.265625 C 37.046875 -61.203125 38.910156 -53.816406 42.640625 -47.109375 C 46.367188 -40.398438 51.394531 -35.09375 57.71875 -31.1875 C 64.050781 -27.28125 71.066406 -25.328125 78.765625 -25.328125 C 87.203125 -25.328125 94.925781 -27.4375 101.9375 -31.65625 C 108.957031 -35.875 114.019531 -42.019531 117.125 -50.09375 L 79.515625 -50.09375 L 79.515625 -75.78125 Z M 150.640625 -75.78125 "/></g></g><g style="fill:#000000;fill-opacity:1;"><g transform="translate(65.238405, 233.048517)"><path style="stroke:none" d="M 150.640625 -75.78125 L 150.640625 -71.5 C 150.640625 -61.320312 148.773438 -51.765625 145.046875 -42.828125 C 141.328125 -33.890625 136.175781 -26.003906 129.59375 -19.171875 C 123.019531 -12.347656 115.382812 -7.039062 106.6875 -3.25 C 98 0.53125 88.691406 2.421875 78.765625 2.421875 C 68.835938 2.421875 59.554688 0.5625 50.921875 -3.15625 C 42.296875 -6.882812 34.722656 -12.035156 28.203125 -18.609375 C 21.691406 -25.191406 16.601562 -32.796875 12.9375 -41.421875 C 9.28125 -50.054688 7.453125 -59.335938 7.453125 -69.265625 C 7.453125 -79.191406 9.28125 -88.5 12.9375 -97.1875 C 16.601562 -105.882812 21.691406 -113.519531 28.203125 -120.09375 C 34.722656 -126.675781 42.296875 -131.828125 50.921875 -135.546875 C 59.554688 -139.273438 68.773438 -141.140625 78.578125 -141.140625 C 91.484375 -141.140625 103.367188 -138.066406 114.234375 -131.921875 C 125.097656 -125.773438 133.632812 -117.613281 139.84375 -107.4375 L 116.75 -90.6875 C 113.144531 -97.507812 107.957031 -103.03125 101.1875 -107.25 C 94.425781 -111.46875 86.953125 -113.578125 78.765625 -113.578125 C 71.066406 -113.578125 64.050781 -111.59375 57.71875 -107.625 C 51.394531 -103.65625 46.367188 -98.316406 42.640625 -91.609375 C 38.910156 -84.910156 37.046875 -77.460938 37.046875 -69.265625 C 37.046875 -61.203125 38.910156 -53.816406 42.640625 -47.109375 C 46.367188 -40.398438 51.394531 -35.09375 57.71875 -31.1875 C 64.050781 -27.28125 71.066406 -25.328125 78.765625 -25.328125 C 87.203125 -25.328125 94.925781 -27.4375 101.9375 -31.65625 C 108.957031 -35.875 114.019531 -42.019531 117.125 -50.09375 L 79.515625 -50.09375 L 79.515625 -75.78125 Z M 150.640625 -75.78125 "/></g></g></g></svg>