<?xml version="1.0" standalone="no"?>
<!DOCTYPE svg PUBLIC "-//W3C//DTD SVG 20010904//EN"
 "http://www.w3.org/TR/2001/REC-SVG-20010904/DTD/svg10.dtd">
<svg version="1.0" xmlns="http://www.w3.org/2000/svg"
 width="500.000000pt" height="500.000000pt" viewBox="0 0 500.000000 500.000000"
 preserveAspectRatio="xMidYMid meet">

<g transform="translate(0.000000,500.000000) scale(0.100000,-0.100000)"
fill="#000000" stroke="none">
<path d="M1642 3759 c-394 -51 -711 -340 -809 -737 -23 -94 -23 -301 1 -407
44 -195 139 -363 285 -503 107 -104 205 -162 346 -209 98 -32 125 -36 244 -41
146 -5 231 6 340 43 296 102 516 322 618 620 30 87 51 230 45 313 l-4 62 -469
0 -469 0 0 -170 0 -169 242 -1 c133 0 244 -3 247 -6 11 -11 -56 -117 -109
-174 -148 -158 -433 -199 -645 -93 -73 37 -187 159 -230 247 -54 110 -68 182
-62 311 7 169 62 294 176 403 226 216 594 194 798 -47 32 -37 63 -76 68 -85 9
-16 27 -6 160 89 83 59 152 109 154 111 23 20 -148 199 -264 277 -149 101
-290 151 -467 167 -115 10 -110 10 -196 -1z"/>
</g>
</svg>
